<?xml version="1.0" encoding="UTF-8"?><svg id="Layer_2" xmlns="http://www.w3.org/2000/svg" width="200" height="200" xmlns:xlink="http://www.w3.org/1999/xlink" viewBox="0 0 200 200"><defs><linearGradient id="linear-gradient" x1="-438.81" y1="640.74" x2="-438.7" y2="640.74" gradientTransform="translate(785733.17 -1147204.93) scale(1790.59)" gradientUnits="userSpaceOnUse"><stop offset="0" stop-color="#ff0058"/><stop offset=".94" stop-color="#ff0058"/><stop offset="1" stop-color="#ff0058"/><stop offset="1" stop-color="#ff0058"/></linearGradient></defs><g id="Layer_1-2"><g id="g10"><path id="path34" d="M0,100c0,55.23,44.77,100,100,100h0c55.23,0,100-44.77,100-100h0C200,44.77,155.23,0,100,0h0C44.77,0,0,44.77,0,100" style="fill:url(#linear-gradient); stroke-width:0px;"/><path id="path46" d="M116.68,99.33c0,.13-.01.27-.02.4,0,.09-.01.19-.02.28-.01.14-.03.28-.05.41-.01.1-.03.19-.04.29-.02.14-.05.29-.08.44-.02.09-.03.18-.06.28-.04.16-.08.33-.12.49-.02.08-.04.16-.06.24-.06.23-.13.46-.21.7,0,.01,0,.03-.01.04-.08.25-.18.51-.27.76-.03.08-.06.15-.09.23-.07.18-.15.36-.23.55-.04.1-.09.2-.13.29-.07.17-.15.33-.23.5-.05.11-.11.21-.16.32-.08.16-.17.33-.25.49-.06.11-.12.22-.18.33-.09.16-.18.33-.28.5-.06.11-.13.22-.2.34-.1.17-.21.34-.31.52-.07.11-.14.22-.21.33-.02.04-.05.08-.08.12,0,0,0,0,0,0l-1.62,2.31c-2.59,3.46-6.2,7.2-10.77,11.15-5.14,4.45-7.96,7.88-9.5,10.3-.24-1.5-.38-3.02-.42-4.56v-.22c-.01-.16-.01-.32-.01-.49,0-5.11,2.4-11.63,4.63-14.55,2.19-2.86,4.87-5.69,7.58-8.85l2.32-2.79c1.97-2.46,3.88-5.15,5.57-8.2.72.03,1.43.1,2.13.22,0,0,0,0,0,0,.02.01.04.03.07.04.01,0,.02.02.04.02.03.02.05.03.08.05.02.01.04.03.06.04.03.02.06.04.09.07.03.02.06.04.08.06.03.03.07.05.1.08.03.03.07.05.1.08.04.03.07.06.11.09.04.03.07.07.11.1.04.03.08.07.11.1.04.04.08.08.12.12.04.04.08.08.12.12.04.04.09.09.13.14.04.04.08.08.12.13.04.05.09.11.13.16.04.05.08.09.12.14.04.06.09.12.14.18.04.05.08.1.12.16.05.06.09.13.13.2.04.06.08.11.11.17.04.07.09.15.13.23.03.06.07.12.1.18.04.08.08.17.13.25.03.06.06.12.09.19.04.09.08.19.12.29.03.06.05.12.08.19.04.11.08.22.11.34.02.06.04.11.06.18.05.18.1.36.14.55.04.21.08.41.11.62.01.07.01.14.02.21.02.14.03.29.04.43,0,.08,0,.17.01.25,0,.13,0,.27,0,.4,0,.09,0,.19,0,.28M112.73,89.21c.73-1.59,1.41-3.27,1.99-5.06,3.6-11.05-2.87-19.57-7.15-25.82-2.98-4.35-13.71-12.11-13.71-12.11,0,0,10.72,20.37-13.44,39.55-25.87,20.52-13.42,54.34,13.7,59.98l.15.03c1.02.22,2.06.3,3.1.23.05,0,.11,0,.16,0,.24,0,.48,0,.72-.01h.05c5.52-.13,10.95-1.66,15.7-4.44.29-.17.59-.35.88-.53v.12l2.08-1.55c8.28-6.14,13.26-16.09,14.34-26.33,1.59-15.1-7.45-24.53-18.57-24.07" style="fill:#fff; stroke-width:0px;"/></g></g></svg>