<?xml version="1.0" encoding="UTF-8"?><svg id="Layer_2" xmlns="http://www.w3.org/2000/svg" width="200" height="200" xmlns:xlink="http://www.w3.org/1999/xlink" viewBox="0 0 200 200"><defs><linearGradient id="linear-gradient" x1="33.56" y1="86.11" x2="114.37" y2="86.11" gradientUnits="userSpaceOnUse"><stop offset="0" stop-color="#18dd8c"/><stop offset="1" stop-color="#00ff2a"/></linearGradient><linearGradient id="linear-gradient-2" x1="85.63" y1="113.89" x2="166.44" y2="113.89" gradientUnits="userSpaceOnUse"><stop offset="0" stop-color="#18dd8c"/><stop offset="1" stop-color="#00ff2a"/></linearGradient><radialGradient id="radial-gradient" cx="-1175.47" cy="315.23" fx="-1175.47" fy="315.23" r="19.45" gradientTransform="translate(3585.26 -834.66) scale(2.97)" gradientUnits="userSpaceOnUse"><stop offset="0" stop-color="#00ff2a"/><stop offset=".24" stop-color="#00fd2d"/><stop offset=".44" stop-color="#03fa37"/><stop offset=".61" stop-color="#07f448"/><stop offset=".78" stop-color="#0dec5f"/><stop offset=".94" stop-color="#14e17e"/><stop offset="1" stop-color="#18dd8c"/></radialGradient></defs><g id="Layer_1-2"><rect x="0" y="0" width="200" height="200" rx="100" ry="100" style="fill:#000; stroke-width:0px;"/><path d="M111.18,92.79c1.95.93,4.04-1.01,2.84-2.65l-23.05-31.4c-5.9-8.04-19.34-8.04-25.24,0l-29.76,40.55c-6.48,8.82.91,20.45,13,20.2,3.21-.07,6.26-1.25,8.53-3.24l20.86-18.24s14.48-13.94,32.83-5.23Z" style="fill:url(#linear-gradient); stroke-width:0px;"/><path d="M151.04,80.5c-3.21.07-6.26,1.25-8.53,3.24l-20.86,18.24s-14.48,13.94-32.83,5.23c-1.95-.93-4.04,1.01-2.84,2.65l23.05,31.4c5.9,8.04,19.34,8.04,25.24,0l29.76-40.55c6.48-8.82-.91-20.45-13-20.2Z" style="fill:url(#linear-gradient-2); stroke-width:0px;"/><path d="M111.18,92.79c1.95.93,4.04-1.01,2.84-2.65l-23.05-31.4c-5.9-8.04-19.34-8.04-25.24,0l-29.76,40.55c-6.48,8.82.91,20.45,13,20.2,3.21-.07,6.26-1.25,8.53-3.24l20.86-18.24s14.48-13.94,32.83-5.23Z" style="fill:url(#radial-gradient); stroke-width:0px;"/><path d="M151.04,80.5c-3.21.07-6.26,1.25-8.53,3.24l-20.86,18.24s-14.48,13.94-32.83,5.23c-1.95-.93-4.04,1.01-2.84,2.65l23.05,31.4c5.9,8.04,19.34,8.04,25.24,0l29.76-40.55c6.48-8.82-.91-20.45-13-20.2Z" style="fill:url(#radial-gradient); stroke-width:0px;"/></g></svg>