<?xml version="1.0" encoding="UTF-8"?><svg id="Layer_2" xmlns="http://www.w3.org/2000/svg" width="200" height="200" xmlns:xlink="http://www.w3.org/1999/xlink" viewBox="0 0 200 200"><defs><linearGradient id="linear-gradient" x1="33.56" y1="86.11" x2="114.37" y2="86.11" gradientUnits="userSpaceOnUse"><stop offset="0" stop-color="#18dd8c"/><stop offset="1" stop-color="#00ff2a"/></linearGradient><linearGradient id="linear-gradient-2" x1="85.63" y1="113.89" x2="166.44" y2="113.89" gradientUnits="userSpaceOnUse"><stop offset="0" stop-color="#18dd8c"/><stop offset="1" stop-color="#00ff2a"/></linearGradient><radialGradient id="radial-gradient" cx="-1175.47" cy="315.23" fx="-1175.47" fy="315.23" r="19.45" gradientTransform="translate(3585.26 -834.66) scale(2.97)" gradientUnits="userSpaceOnUse"><stop offset="0" stop-color="#00ff2a"/><stop offset=".24" stop-color="#00fd2d"/><stop offset=".44" stop-color="#03fa37"/><stop offset=".61" stop-color="#07f448"/><stop offset=".78" stop-color="#0dec5f"/><stop offset=".94" stop-color="#14e17e"/><stop offset="1" stop-color="#18dd8c"/></radialGradient></defs><g id="Layer_1-2"><rect x="0" y="0" width="200" height="200" rx="100" ry="100" style="fill:#000; stroke-width:0px;"/><path d="M111.18,92.79c1.95.93,4.04-1.01,2.84-2.65l-23.05-31.4c-5.9-8.04-19.34-8.04-25.24,0l-29.76,40.55c-6.48,8.82.91,20.45,13,20.2,3.21-.07,6.26-1.25,8.53-3.24l20.86-18.24s14.48-13.94,32.83-5.23Z" style="fill:url(#linear-gradient); stroke-width:0px;"/><path d="M151.04,80.5c-3.21.07-6.26,1.25-8.53,3.24l-20.86,18.24s-14.48,13.94-32.83,5.23c-1.95-.93-4.04,1.01-2.84,2.65l23.05,31.4c5.9,8.04,19.34,8.04,25.24,0l29.76-40.55c6.48-8.82-.91-20.45-13-20.2Z" style="fill:url(#linear-gradient-2); stroke-width:0px;"/><path d="M111.18,92.79c1.95.93,4.04-1.01,2.84-2.65l-23.05-31.4c-5.9-8.04-19.34-8.04-25.24,0l-29.76,40.55c-6.48,8.82.91,20.45,13,20.2,3.21-.07,6.26-1.25,8.53-3.24l20.86-18.24s14.48-13.94,32.83-5.23Z" style="fill:url(#radial-gradient); stroke-width:0px;"/><path d="M151.04,80.5c-3.21.07-6.26,1.25-8.53,3.24l-20.86,18.24s-14.48,13.94-32.83,5.23c-1.95-.93-4.04,1.01-2.84,2.65l23.05,31.4c5.9,8.04,19.34,8.04,25.24,0l29.76-40.55c6.48-8.82-.91-20.45-13-20.2Z" style="fill:url(#radial-gradient); stroke-width:0px;"/><path d="M163.05,143.88c2.87,4.54,4.53,9.92,4.53,15.7,0,16.25-13.12,29.38-29.38,29.38s-29.37-13.13-29.37-29.38c0-7.08,2.5-13.44,6.56-18.54.31-.42.62-.83,1.04-1.15,5.42-5.94,13.12-9.69,21.77-9.69,5.68,0,10.97,1.6,15.46,4.38,3.8,2.35,7.01,5.53,9.39,9.3Z" style="fill:#2775ca; stroke-width:0px;"/><path d="M167.58,159.58c0,16.25-13.12,29.38-29.38,29.38s-29.37-13.13-29.37-29.38c0-7.08,2.5-13.44,6.56-18.54.31-.42.62-.83,1.04-1.15,5.42-5.94,13.12-9.69,21.77-9.69,5.68,0,10.97,1.6,15.46,4.38,3.79,2.34,7,5.53,9.38,9.29,2.88,4.55,4.54,9.93,4.54,15.71Z" style="fill:#fff; stroke-width:0px;"/><path d="M127.93,174.18h5.26l5-16.78,5,16.78h5.33l7.45-25.2h-5.47l-4.86,17.24-5.18-17.24h-4.57l-5.15,17.24-4.82-17.24h-5.47l7.49,25.2Z" style="fill:#000; stroke-width:0px;"/></g></svg>