<?xml version="1.0" encoding="UTF-8"?><svg id="Layer_2" xmlns="http://www.w3.org/2000/svg" width="200" height="200" viewBox="0 0 200 200"><g id="Layer_2-2"><path d="M100,0h0c55.23,0,100,44.77,100,100h0c0,55.23-44.77,100-100,100h0C44.77,200,0,155.23,0,100h0C0,44.77,44.77,0,100,0Z" style="fill:#000; stroke-width:0px;"/><path d="M105.65,99.95l46.82-24.93-7.86-15.02-42.9,17.24c-1.1.45-2.33.45-3.43,0l-42.9-17.24-7.89,15.07,46.82,24.93-46.82,24.93,7.89,15.07,42.9-17.37c1.1-.45,2.33-.45,3.43,0l42.9,17.28,7.89-15.07-46.85-24.9Z" style="fill:#23f7dd; stroke-width:0px;"/></g></svg>