<?xml version="1.0" encoding="UTF-8"?><svg id="Layer_2" xmlns="http://www.w3.org/2000/svg" width="200" height="200" xmlns:xlink="http://www.w3.org/1999/xlink" viewBox="0 0 200 200"><defs><style>.cls-1{fill:url(#linear-gradient);}.cls-1,.cls-2{stroke-width:0px;}.cls-2{fill:#fff;}</style><linearGradient id="linear-gradient" x1="0" y1="100" x2="200" y2="100" gradientUnits="userSpaceOnUse"><stop offset="0" stop-color="#00ff2a"/><stop offset=".24" stop-color="#00fd2d"/><stop offset=".44" stop-color="#03fa37"/><stop offset=".61" stop-color="#07f448"/><stop offset=".78" stop-color="#0dec5f"/><stop offset=".94" stop-color="#14e17e"/><stop offset="1" stop-color="#18dd8c"/></linearGradient></defs><g id="Layer_1-2"><g id="_2"><circle id="bg-final" class="cls-1" cx="100" cy="100" r="100"/><g id="logomark"><path class="cls-2" d="M38.21,99.32l28.72-39.1c5.7-7.75,18.66-7.75,24.36,0l22.24,30.27c1.16,1.58-.85,3.45-2.74,2.55-17.71-8.4-31.68,5.04-31.68,5.04l-20.12,17.59c-2.19,1.91-5.13,3.06-8.23,3.12-11.66.24-18.79-10.97-12.54-19.48Z"/><path class="cls-2" d="M161.79,100.68l-28.72,39.1c-5.7,7.75-18.66,7.75-24.36,0l-22.24-30.28c-1.16-1.58.85-3.44,2.74-2.55,17.71,8.4,31.68-5.04,31.68-5.04l20.12-17.59c2.19-1.91,5.13-3.06,8.23-3.12,11.66-.24,18.79,10.97,12.54,19.48Z"/></g></g></g></svg>