<?xml version="1.0" encoding="UTF-8"?>
<svg xmlns="http://www.w3.org/2000/svg" version="1.1" viewBox="0 0 408.8 105.9">
  <!-- Generator: Adobe Illustrator 28.7.1, SVG Export Plug-In . SVG Version: 1.2.0 Build 142)  -->
  <g>
    <g id="Layer_2">
      <g id="Layer_1-2">
        <g id="Layer_1-3">
          <path d="M174.7,31.2c-1.4,8.4-8.3,14.7-17.9,14.7s-18.3-8.4-18.3-18.5,7.3-18.6,18.3-18.6,16.3,6.2,17.8,14.4h-6.6c-1.4-4.7-5.6-8.3-11.1-8.2-7.3,0-11.9,5.8-11.9,12.3s4.6,12.3,11.9,12.3,10-3.6,11.2-8.5h6.6s0,0,0,0Z"/>
          <path d="M209.2,9.5l-14.6,21v14.7h-6.4v-14.4l-14.6-21.3h7.5l10.3,15.3,10.3-15.3h7.4Z"/>
          <path d="M237.1,26.6c3.2,1.4,5.4,4.3,5.4,8.3,0,5.9-4.6,10.3-10.6,10.3h-19.1V9.5h18.3c5.8,0,10.3,3.8,10.3,9.5s-1.6,5.9-4.4,7.4h0c0,.1,0,.2,0,.2ZM219.2,15.5v8.7h11.3c2.7,0,4.6-2,4.6-4.4s-1.9-4.4-4.6-4.4h-11.3c0,0,0,0,0,0h0ZM231.3,39.2c2.7,0,4.7-2,4.7-4.6s-2.1-4.6-4.9-4.6h-12.1v9.2h12.2c0,0,0,0,0,0h0Z"/>
          <path d="M248.7,45.2V9.5h26.9v6.2h-20.5v8.1h18.5v6h-18.5v9h20.5v6.2h-26.9s0,0,0,0Z"/>
          <path d="M282.4,45.2V9.5h18.1c6.9,0,11.9,3.6,11.9,9.9s-1.3,5.9-3.5,7.5h0c2.8.8,4.2,2.9,4.2,6.5v11.8h-6.4v-10.5c0-1.5-.9-2.3-2.5-2.3h-15.5v12.8h-6.4,0,0ZM288.8,26.4h11.3c3.4,0,6-2.1,6-5.4s-2.6-5.4-6-5.4h-11.3v10.7Z"/>
          <path d="M326.9,38v7.2h-6.9v-7.2h6.9Z"/>
          <path d="M166.7,60.7h6.4v35.7h-6.4l-19.9-26.8v26.8h-6.4v-35.7h7.5l18.9,25.2v-25.2s0,0,0,0Z"/>
          <path d="M181.4,96.4v-35.7h26.9v6.2h-20.5v8.1h18.5v6h-18.5v9h20.5v6.2h-26.9s0,0,0,0Z"/>
          <path d="M243.7,60.7v6.2h-12.4v29.4h-6.4v-29.4h-12.4v-6.2h31.2,0Z"/>
          <path d="M288.9,60.7h6.9l-10.7,35.7h-7l-7.3-24.9-7.3,24.9h-7l-10.7-35.7h6.9l7.5,25.5,7.3-25.5h6.4l7.3,25.5,7.5-25.5h0,0Z"/>
          <path d="M297.3,78.6c0-10.2,7.4-18.6,18.6-18.6s18.7,8.4,18.7,18.6-7.4,18.5-18.7,18.5-18.6-8.3-18.6-18.5h0ZM328.2,78.6c0-6.7-4.7-12.3-12.3-12.3s-12.2,5.6-12.2,12.3,4.7,12.3,12.2,12.3,12.3-5.7,12.3-12.3Z"/>
          <path d="M340.8,96.4v-35.7h18.1c6.9,0,11.9,3.6,11.9,9.9s-1.3,5.9-3.5,7.5h0c2.8.8,4.2,2.9,4.2,6.5v11.8h-6.4v-10.5c0-1.5-.8-2.3-2.5-2.3h-15.5v12.8h-6.4,0,0ZM347.1,77.7h11.3c3.4,0,6-2.1,6-5.3s-2.6-5.3-6-5.3h-11.3v10.7Z"/>
          <path d="M401,75c4.9,0,7,2.5,7,7.1v14.2h-6.4v-13c0-1.6-.8-2.3-2.4-2.3h-14.9v15.3h-6.4v-35.7h6.4v14.3h9.7l7.7-14.3h7l-7.8,14.3h0Z"/>
          <path d="M105.9,26.5L13.2,52.9l92.7,26.5v26.5h-52.9L0,52.9,53,0h52.9v26.5h0Z"/>
        </g>
      </g>
    </g>
  </g>
</svg>